<svg width="512" height="512" viewBox="0 0 512 512" fill="none" xmlns="http://www.w3.org/2000/svg">
  <defs>
    <linearGradient id="hexCenter" x1="186" y1="160" x2="326" y2="352" gradientUnits="userSpaceOnUse">
      <stop stop-color="#0ea5e9"/>
      <stop offset="1" stop-color="#0284c7"/>
    </linearGradient>
    <linearGradient id="hex1" x1="108" y1="112" x2="220" y2="240" gradientUnits="userSpaceOnUse">
      <stop stop-color="#38bdf8"/>
      <stop offset="1" stop-color="#0ea5e9"/>
    </linearGradient>
    <linearGradient id="hex2" x1="292" y1="112" x2="404" y2="240" gradientUnits="userSpaceOnUse">
      <stop stop-color="#7dd3fc"/>
      <stop offset="1" stop-color="#38bdf8"/>
    </linearGradient>
    <linearGradient id="hex3" x1="356" y1="224" x2="468" y2="352" gradientUnits="userSpaceOnUse">
      <stop stop-color="#bae6fd"/>
      <stop offset="1" stop-color="#7dd3fc"/>
    </linearGradient>
    <linearGradient id="hex4" x1="256" y1="336" x2="368" y2="464" gradientUnits="userSpaceOnUse">
      <stop stop-color="#e0f2fe"/>
      <stop offset="1" stop-color="#bae6fd"/>
    </linearGradient>
    <linearGradient id="hex5" x1="144" y1="224" x2="256" y2="352" gradientUnits="userSpaceOnUse">
      <stop stop-color="#7dd3fc"/>
      <stop offset="1" stop-color="#38bdf8"/>
    </linearGradient>
  </defs>

  <g opacity="0.45" stroke="#38bdf8" stroke-width="10" stroke-linecap="round">
    <line x1="168" y1="176" x2="256" y2="224"/>
    <line x1="344" y1="176" x2="256" y2="224"/>
    <line x1="392" y1="272" x2="304" y2="320"/>
    <line x1="256" y1="416" x2="304" y2="320"/>
    <line x1="208" y1="320" x2="256" y2="224"/>
  </g>

  <path d="M256 160L326 200V280L256 320L186 280V200L256 160Z" fill="url(#hexCenter)"/>
  <path d="M168 112L220 142V202L168 232L116 202V142L168 112Z" fill="url(#hex1)"/>
  <path d="M344 112L396 142V202L344 232L292 202V142L344 112Z" fill="url(#hex2)"/>
  <path d="M392 224L444 254V314L392 344L340 314V254L392 224Z" fill="url(#hex3)"/>
  <path d="M304 336L356 366V426L304 456L252 426V366L304 336Z" fill="url(#hex4)"/>
  <path d="M208 224L260 254V314L208 344L156 314V254L208 224Z" fill="url(#hex5)"/>
</svg>
